<?xml version="1.0" encoding="UTF-8" standalone="no"?>
<!DOCTYPE svg PUBLIC "-//W3C//DTD SVG 1.1//EN" "http://www.w3.org/Graphics/SVG/1.1/DTD/svg11.dtd">
<svg width="100%" height="100%" viewBox="0 0 5000 2500" version="1.1" xmlns="http://www.w3.org/2000/svg" xmlns:xlink="http://www.w3.org/1999/xlink" xml:space="preserve" xmlns:serif="http://www.serif.com/" style="fill-rule:evenodd;clip-rule:evenodd;stroke-linejoin:round;stroke-miterlimit:2;">
    <g transform="matrix(4.16667,0,0,4.16667,0,0)">
        <path d="M362.284,544.24L361.008,542.964L381.082,522.891L382.358,524.167L362.284,544.24Z" style="fill:white;fill-rule:nonzero;"/>
        <path d="M382.358,544.24L381.082,542.964L401.155,522.891L402.431,524.167L382.358,544.24Z" style="fill:white;fill-rule:nonzero;"/>
        <path d="M402.431,544.24L401.155,542.964L421.229,522.891L422.505,524.167L402.431,544.24Z" style="fill:white;fill-rule:nonzero;"/>
        <path d="M422.505,544.24L421.229,542.964L441.303,522.891L442.579,524.167L422.505,544.24Z" style="fill:white;fill-rule:nonzero;"/>
        <path d="M442.579,544.24L441.303,542.964L461.376,522.891L462.653,524.167L442.579,544.24Z" style="fill:white;fill-rule:nonzero;"/>
        <path d="M710.284,424.24L709.008,422.964L729.081,402.891L730.357,404.167L710.284,424.24Z" style="fill:white;fill-rule:nonzero;"/>
        <path d="M730.357,424.24L729.081,422.964L749.155,402.891L750.432,404.167L730.357,424.24Z" style="fill:white;fill-rule:nonzero;"/>
        <path d="M750.432,424.24L749.155,422.964L769.229,402.891L770.505,404.167L750.432,424.24Z" style="fill:white;fill-rule:nonzero;"/>
        <path d="M770.505,424.24L769.229,422.964L789.303,402.891L790.579,404.167L770.505,424.24Z" style="fill:white;fill-rule:nonzero;"/>
        <path d="M790.579,424.24L789.303,422.964L809.377,402.891L810.653,404.167L790.579,424.24Z" style="fill:white;fill-rule:nonzero;"/>
        <path d="M891.868,263.207L890.454,261.793L1295.79,-143.546L1297.21,-142.132L891.868,263.207Z" style="fill:white;fill-rule:nonzero;"/>
        <path d="M1010.87,191.207L1009.45,189.793L1414.79,-215.546L1416.21,-214.132L1010.87,191.207Z" style="fill:white;fill-rule:nonzero;"/>
        <path d="M439.868,897.207L438.454,895.793L843.793,490.454L845.207,491.868L439.868,897.207Z" style="fill:white;fill-rule:nonzero;"/>
        <path d="M558.868,825.207L557.454,823.793L962.793,418.454L964.207,419.868L558.868,825.207Z" style="fill:white;fill-rule:nonzero;"/>
        <path d="M41.868,175.207L40.454,173.793L445.793,-231.546L447.207,-230.132L41.868,175.207Z" style="fill:white;fill-rule:nonzero;"/>
        <path d="M160.868,103.207L159.454,101.793L564.793,-303.546L566.207,-302.132L160.868,103.207Z" style="fill:white;fill-rule:nonzero;"/>
        <path d="M-234.132,832.207L-235.546,830.793L169.793,425.454L171.207,426.868L-234.132,832.207Z" style="fill:white;fill-rule:nonzero;"/>
        <path d="M-115.132,760.207L-116.546,758.793L288.793,353.454L290.207,354.868L-115.132,760.207Z" style="fill:white;fill-rule:nonzero;"/>
        <g>
            <clipPath id="_clip1">
                <rect x="0" y="192.066" width="6.36" height="11.591"/>
            </clipPath>
            <g clip-path="url(#_clip1)">
                <path d="M0,203.657L0,197.828L3.326,192.066C4.347,192.241 5.359,192.426 6.36,192.64L0,203.657Z" style="fill:rgb(208,146,0);"/>
            </g>
            <path d="M0,217.34L0,211.51L10.377,193.535C11.36,193.768 12.333,194.022 13.305,194.293L0,217.34Z" style="fill:rgb(208,146,0);"/>
            <path d="M0,231.031L0,225.176L17.166,195.441C18.119,195.743 19.062,196.054 19.996,196.394L0,231.031Z" style="fill:rgb(208,146,0);"/>
            <path d="M0,244.705L0,238.88L23.731,197.775C24.645,198.135 25.549,198.515 26.444,198.904L0,244.705Z" style="fill:rgb(208,146,0);"/>
            <path d="M0,258.406L0,252.563L30.043,200.528C30.928,200.946 31.803,201.374 32.669,201.821L0,258.406Z" style="fill:rgb(208,146,0);"/>
            <path d="M0,272.08L0,266.235L36.121,203.669C36.977,204.146 37.814,204.632 38.65,205.138L0,272.08Z" style="fill:rgb(208,146,0);"/>
            <path d="M0,285.766L0,279.915L41.976,207.209C42.793,207.734 43.61,208.279 44.408,208.843L0,285.766Z" style="fill:rgb(208,146,0);"/>
            <path d="M0,299.462L0,293.614L47.617,211.138C48.405,211.732 49.183,212.335 49.951,212.947L0,299.462Z" style="fill:rgb(208,146,0);"/>
            <path d="M0,313.14L0,307.309L53.015,215.486C53.764,216.118 54.503,216.779 55.242,217.451L0,313.14Z" style="fill:rgb(208,146,0);"/>
            <path d="M0,326.815L0,320.973L58.169,220.222C58.899,220.932 59.609,221.652 60.3,222.381L0,326.815Z" style="fill:rgb(208,146,0);"/>
            <path d="M0,340.505L0,334.687L63.091,225.406C63.771,226.174 64.443,226.962 65.094,227.75L0,340.505Z" style="fill:rgb(208,146,0);"/>
            <path d="M0,354.192L0,348.351L67.729,231.037C68.381,231.874 69.014,232.729 69.626,233.595L0,354.192Z" style="fill:rgb(208,146,0);"/>
            <path d="M0,367.877L0,362.036L72.087,237.174C72.7,238.089 73.293,239.012 73.857,239.955L0,367.877Z" style="fill:rgb(208,146,0);"/>
            <path d="M0,381.564L0,375.735L76.133,243.865C76.697,244.867 77.232,245.869 77.747,246.89L0,381.564Z" style="fill:rgb(208,146,0);"/>
            <path d="M0,395.25L0,389.41L79.809,251.179C80.315,252.278 80.801,253.387 81.258,254.515L0,395.25Z" style="fill:rgb(208,146,0);"/>
            <path d="M4.503,395.294L83.067,259.232C83.505,260.448 83.913,261.683 84.302,262.918L8.325,394.516C7.061,394.808 5.787,395.07 4.503,395.294Z" style="fill:rgb(208,146,0);"/>
            <path d="M13.626,393.193L85.8,268.18C86.15,269.56 86.471,270.942 86.763,272.342L17.701,391.958C16.359,392.405 14.997,392.813 13.626,393.193Z" style="fill:rgb(208,146,0);"/>
            <path d="M23.41,389.926L87.852,278.313C88.085,279.899 88.29,281.494 88.446,283.099L27.854,388.058C26.386,388.72 24.908,389.332 23.41,389.926Z" style="fill:rgb(208,146,0);"/>
            <path d="M34.167,384.965L88.932,290.12C88.98,291.336 89,292.562 89,293.787C89,294.487 88.99,295.187 88.98,295.878L39.175,382.135C37.541,383.127 35.868,384.07 34.167,384.965Z" style="fill:rgb(208,146,0);"/>
            <path d="M46.538,377.224L88.426,304.67C88.153,307.296 87.784,309.883 87.308,312.44L52.732,372.332C50.739,374.043 48.667,375.677 46.538,377.224Z" style="fill:rgb(208,146,0);"/>
            <path d="M63.236,362.003L83.66,326.621C79.245,339.799 72.232,351.801 63.236,362.003Z" style="fill:rgb(208,146,0);"/>
            <path d="M599.996,184.235C599.554,184.235 599.113,184.235 598.671,184.227C585.129,184.135 571.946,182.543 559.271,179.618C479.195,161.151 419.494,89.418 419.494,3.734C419.494,2.484 419.511,1.242 419.536,0L502.303,0C502.253,1.242 502.228,2.484 502.228,3.734C502.228,57.734 546.004,101.509 599.996,101.509C653.996,101.509 697.772,57.734 697.772,3.734C697.772,2.484 697.747,1.242 697.696,0L780.464,0C780.489,1.242 780.506,2.484 780.506,3.734C780.506,74.693 739.564,136.085 680.013,165.576C668.28,171.393 655.821,175.968 642.812,179.127L642.805,179.127C629.079,182.468 614.746,184.235 599.996,184.235Z" style="fill:rgb(208,146,0);"/>
            <path d="M600,59.803C566.972,59.803 540.198,33.028 540.198,0L659.803,0C659.803,33.028 633.028,59.803 600,59.803Z" style="fill:rgb(208,146,0);"/>
            <path d="M973.281,600L919.892,600C908.346,568.81 887.681,542.046 861.13,522.946L897.454,486.621C933.721,514.881 960.761,554.438 973.281,600ZM609.108,600L555.719,600C580.906,508.34 664.839,441 764.5,441C813.892,441 859.428,457.545 895.858,485.389L859.476,521.771C850.654,515.587 841.197,510.238 831.229,505.846L845.207,491.868L843.793,490.454L829.256,504.991C809.365,496.535 787.477,491.856 764.5,491.856C693.236,491.856 632.481,536.863 609.108,600Z" style="fill:rgb(208,146,0);"/>
            <path d="M894.81,600L857.055,600C847.848,585.21 835.194,572.789 820.217,563.858L844.436,539.64C866.394,554.562 883.967,575.464 894.81,600ZM671.945,600L634.19,600C656.287,549.999 706.319,515.104 764.5,515.104C780.887,515.104 796.629,517.872 811.281,522.966L783.961,550.286C777.646,549.147 771.143,548.553 764.5,548.553C725.436,548.553 691.174,569.111 671.945,600ZM818.431,562.816C808.588,557.197 797.791,553.072 786.334,550.741L813.366,523.709C823.78,527.515 833.627,532.5 842.741,538.506L818.431,562.816Z" style="fill:rgb(208,146,0);"/>
            <path d="M1162.5,462C1088.77,462 1029,402.23 1029,328.5C1029,254.77 1088.77,195 1162.5,195C1175.52,195 1188.1,196.864 1200,200.339L1200,233.462C1188.39,228.878 1175.74,226.359 1162.5,226.359C1106.09,226.359 1060.36,272.089 1060.36,328.5C1060.36,384.911 1106.09,430.641 1162.5,430.641C1175.74,430.641 1188.39,428.121 1200,423.537L1200,456.661C1188.1,460.136 1175.52,462 1162.5,462Z" style="fill:rgb(208,146,0);"/>
            <path d="M1162.5,416.306C1116.77,416.306 1079.21,381.346 1075.07,336.697L1080.39,342.019L1095.34,327.079C1095.33,327.552 1095.32,328.024 1095.32,328.5C1095.32,365.603 1125.4,395.68 1162.5,395.68C1176.39,395.68 1189.29,391.465 1200,384.248L1200,407.918C1188.63,413.298 1175.92,416.306 1162.5,416.306ZM1080.39,339.191L1074.84,333.639C1074.74,331.938 1074.69,330.226 1074.69,328.5C1074.69,321.855 1075.43,315.384 1076.83,309.161L1080.39,305.598L1095.74,320.944C1095.62,321.997 1095.53,323.058 1095.46,324.125L1080.39,339.191ZM1096.07,318.443L1080.39,302.769L1077.76,305.399C1087.91,268.112 1122,240.695 1162.5,240.695C1175.92,240.695 1188.63,243.702 1200,249.083L1200,272.752C1189.29,265.535 1176.39,261.32 1162.5,261.32C1128.81,261.32 1100.92,286.11 1096.07,318.443Z" style="fill:rgb(208,146,0);"/>
        </g>
        <path d="M970.848,493.145L1029.14,551.441L1087.44,493.145L1029.14,434.848L970.848,493.145ZM1029.14,554.27L968.02,493.145L1029.14,432.02L1090.27,493.145L1029.14,554.27Z" style="fill:white;fill-rule:nonzero;"/>
        <path d="M253.348,175.645L313.645,235.941L373.941,175.645L313.645,115.348L253.348,175.645ZM313.645,238.77L250.52,175.645L313.645,112.52L376.77,175.645L313.645,238.77Z" style="fill:white;fill-rule:nonzero;"/>
        <path d="M237.348,484.645L262.645,509.941L287.941,484.645L262.645,459.348L237.348,484.645ZM262.645,512.771L234.52,484.645L262.645,456.52L290.77,484.645L262.645,512.771Z" style="fill:white;fill-rule:nonzero;"/>
        <path d="M938.348,93.645L963.645,118.941L988.941,93.645L963.645,68.349L938.348,93.645ZM963.645,121.77L935.52,93.645L963.645,65.52L991.77,93.645L963.645,121.77Z" style="fill:white;fill-rule:nonzero;"/>
        <path d="M1063.6,322.395L1080.39,339.191L1097.19,322.395L1080.39,305.598L1063.6,322.395ZM1080.39,342.019L1060.77,322.395L1080.39,302.769L1100.02,322.395L1080.39,342.019Z" style="fill:white;fill-rule:nonzero;"/>
        <path d="M403.598,351.395L420.395,368.191L437.191,351.395L420.395,334.598L403.598,351.395ZM420.395,371.02L400.77,351.395L420.395,331.77L440.02,351.395L420.395,371.02Z" style="fill:white;fill-rule:nonzero;"/>
        <path d="M599.997,0C601.081,0 601.953,0.872 601.953,1.957C601.953,3.035 601.081,3.913 599.997,3.913C598.918,3.913 598.046,3.035 598.046,1.957C598.046,0.872 598.918,0 599.997,0ZM599.997,20.12C601.081,20.12 601.953,20.992 601.953,22.076C601.953,23.155 601.081,24.032 599.997,24.032C598.918,24.032 598.046,23.155 598.046,22.076C598.046,20.992 598.918,20.12 599.997,20.12ZM599.997,40.239C601.081,40.239 601.953,41.111 601.953,42.195C601.953,43.274 601.081,44.151 599.997,44.151C598.918,44.151 598.046,43.274 598.046,42.195C598.046,41.111 598.918,40.239 599.997,40.239ZM599.997,60.353C601.081,60.353 601.953,61.23 601.953,62.315C601.953,63.394 601.081,64.271 599.997,64.271C598.918,64.271 598.046,63.394 598.046,62.315C598.046,61.23 598.918,60.353 599.997,60.353ZM599.997,80.478C601.081,80.478 601.953,81.35 601.953,82.435C601.953,83.513 601.081,84.391 599.997,84.391C598.918,84.391 598.046,83.513 598.046,82.435C598.046,81.35 598.918,80.478 599.997,80.478ZM599.997,100.597C601.081,100.597 601.953,101.469 601.953,102.553C601.953,103.632 601.081,104.51 599.997,104.51C598.918,104.51 598.046,103.632 598.046,102.553C598.046,101.469 598.918,100.597 599.997,100.597ZM599.997,120.717C601.081,120.717 601.953,121.588 601.953,122.673C601.953,123.751 601.081,124.623 599.997,124.623C598.918,124.623 598.046,123.751 598.046,122.673C598.046,121.588 598.918,120.717 599.997,120.717ZM599.997,140.836C601.081,140.836 601.953,141.708 601.953,142.792C601.953,143.871 601.081,144.749 599.997,144.749C598.918,144.749 598.046,143.871 598.046,142.792C598.046,141.708 598.918,140.836 599.997,140.836ZM599.997,160.956C601.081,160.956 601.953,161.828 601.953,162.912C601.953,163.991 601.081,164.868 599.997,164.868C598.918,164.868 598.046,163.991 598.046,162.912C598.046,161.828 598.918,160.956 599.997,160.956ZM599.997,181.076C601.081,181.076 601.953,181.947 601.953,183.032C601.953,184.11 601.081,184.988 599.997,184.988C598.918,184.988 598.046,184.11 598.046,183.032C598.046,181.947 598.918,181.076 599.997,181.076ZM599.997,201.195C601.081,201.195 601.953,202.066 601.953,203.145C601.953,204.229 601.081,205.107 599.997,205.107C598.918,205.107 598.046,204.229 598.046,203.145C598.046,202.066 598.918,201.195 599.997,201.195Z" style="fill:white;fill-rule:nonzero;"/>
        <path d="M831.229,505.846C830.572,505.556 829.918,505.273 829.256,504.991L843.793,490.454L845.207,491.868L831.229,505.846Z" style="fill:white;fill-rule:nonzero;"/>
        <path d="M861.13,522.946C860.582,522.552 860.028,522.159 859.476,521.771L895.858,485.389C896.396,485.8 896.92,486.205 897.454,486.621L861.13,522.946Z" style="fill:white;fill-rule:nonzero;"/>
        <path d="M786.334,550.741C785.548,550.581 784.754,550.429 783.961,550.286L811.281,522.966C811.98,523.209 812.671,523.456 813.366,523.709L786.334,550.741Z" style="fill:white;fill-rule:nonzero;"/>
        <path d="M820.217,563.858C819.626,563.506 819.029,563.158 818.431,562.816L842.741,538.506C843.308,538.879 843.874,539.258 844.436,539.64L820.217,563.858Z" style="fill:white;fill-rule:nonzero;"/>
        <path d="M1080.39,342.019L1075.07,336.697C1074.98,335.683 1074.9,334.663 1074.84,333.639L1080.39,339.191L1095.46,324.125C1095.4,325.104 1095.36,326.09 1095.34,327.079L1080.39,342.019ZM1095.74,320.944L1080.39,305.598L1076.83,309.161C1077.12,307.897 1077.43,306.642 1077.76,305.399L1080.39,302.769L1096.07,318.443C1095.94,319.271 1095.83,320.106 1095.74,320.944Z" style="fill:white;fill-rule:nonzero;"/>
    </g>
</svg>
