<?xml version="1.0" encoding="UTF-8" standalone="no"?>
<!DOCTYPE svg PUBLIC "-//W3C//DTD SVG 1.1//EN" "http://www.w3.org/Graphics/SVG/1.1/DTD/svg11.dtd">
<svg width="100%" height="100%" viewBox="0 0 130 130" version="1.1" xmlns="http://www.w3.org/2000/svg" xmlns:xlink="http://www.w3.org/1999/xlink" xml:space="preserve" xmlns:serif="http://www.serif.com/" style="fill-rule:evenodd;clip-rule:evenodd;stroke-linejoin:round;stroke-miterlimit:2;">
    <g transform="matrix(1,0,0,1,-1741,-2803)">
        <g transform="matrix(4.16667,0,0,4.16667,0,0)">
            <path d="M424.23,694.576L426.394,693.307C426.53,693.249 426.725,693.183 426.786,693.178C427.008,693.178 427.159,693.25 427.29,693.421C427.3,693.435 427.311,693.447 427.323,693.46C428.461,694.695 429.7,695.556 431.002,696.016C431.175,696.077 431.366,696.051 431.516,695.945C431.665,695.839 431.754,695.668 431.754,695.485L431.754,690.433C431.754,690.154 431.551,689.918 431.276,689.875C428.618,689.466 426.684,688.471 425.524,686.916C424.842,686.015 424.5,685.005 424.48,683.83C424.435,681.435 425.721,679.675 428.412,678.45C429.252,678.065 430.213,677.796 431.268,677.65C431.546,677.611 431.754,677.373 431.754,677.092L431.754,674.873C431.754,674.536 432.027,674.263 432.364,674.263L434.513,674.263C434.85,674.263 435.124,674.536 435.124,674.873L435.124,677.151C435.124,677.426 435.32,677.66 435.59,677.707C437.818,678.095 439.662,679.104 441.07,680.705C441.083,680.72 441.098,680.735 441.113,680.749C441.231,680.856 441.246,680.939 441.245,681.005C441.244,681.063 441.242,681.184 441.005,681.333L438.623,682.828C438.494,682.892 438.264,682.976 438.16,682.976C437.912,682.975 437.7,682.898 437.521,682.75C437.022,682.317 436.487,681.964 435.927,681.701C435.753,681.618 435.548,681.631 435.385,681.734C435.222,681.838 435.124,682.017 435.124,682.21L435.124,686.257C435.124,686.538 435.331,686.776 435.609,686.815C438.332,687.196 440.353,688.152 441.612,689.654C442.367,690.567 442.721,691.657 442.693,692.987C442.652,695.134 441.728,696.776 439.87,698.005C438.681,698.784 437.245,699.303 435.604,699.548C435.328,699.589 435.124,699.826 435.124,700.105L435.124,702.103C435.124,702.438 434.85,702.71 434.513,702.71L432.364,702.71C432.027,702.71 431.754,702.438 431.754,702.103L431.754,700.108C431.754,699.831 431.552,699.595 431.279,699.552C429.427,699.257 427.748,698.539 426.286,697.415C425.377,696.724 424.645,695.994 424.108,695.247C424.096,695.23 424.083,695.214 424.07,695.199C423.972,695.089 423.958,695.006 423.957,694.942C423.955,694.87 423.953,694.735 424.23,694.576ZM425.602,698.31C427.085,699.451 428.774,700.213 430.627,700.58L430.627,702.103C430.627,703.059 431.406,703.837 432.364,703.837L434.513,703.837C435.471,703.837 436.25,703.059 436.25,702.103L436.25,700.582C437.856,700.288 439.28,699.738 440.489,698.946C442.651,697.517 443.771,695.519 443.82,693.009C443.853,691.421 443.401,690.05 442.477,688.933C441.11,687.302 439.017,686.241 436.25,685.774L436.25,683.187C436.434,683.314 436.615,683.455 436.792,683.609C437.185,683.934 437.643,684.1 438.154,684.102C438.576,684.115 439.053,683.874 439.125,683.836C439.15,683.826 439.173,683.813 439.196,683.799L441.606,682.287C442.228,681.894 442.365,681.383 442.372,681.023C442.378,680.614 442.214,680.24 441.897,679.939C440.418,678.266 438.521,677.174 436.25,676.687L436.25,674.873C436.25,673.915 435.471,673.136 434.513,673.136L432.364,673.136C431.406,673.136 430.627,673.915 430.627,674.873L430.627,676.61C429.652,676.782 428.751,677.056 427.944,677.425C424.845,678.836 423.3,680.998 423.353,683.851C423.378,685.252 423.806,686.513 424.624,687.593C425.89,689.292 427.909,690.406 430.627,690.908L430.627,694.632C429.773,694.201 428.949,693.558 428.167,692.713C427.824,692.28 427.347,692.051 426.786,692.051C426.484,692.051 426.078,692.215 425.917,692.285C425.905,692.29 425.893,692.296 425.881,692.302C425.873,692.307 425.859,692.313 425.852,692.318L423.663,693.602C422.964,694.006 422.824,694.563 422.83,694.961C422.836,695.317 422.964,695.642 423.208,695.926C423.809,696.757 424.615,697.56 425.602,698.31Z" style="fill:rgb(233,165,4);fill-rule:nonzero;"/>
            <path d="M430.627,684.675C430.385,684.402 430.338,684.106 430.336,683.85C430.335,683.647 430.374,683.383 430.627,683.113L430.627,684.675ZM431.754,682.1C431.754,681.914 431.662,681.74 431.508,681.635C431.355,681.53 431.16,681.508 430.986,681.575L430.821,681.64C430.808,681.645 430.795,681.65 430.782,681.656C429.475,682.28 429.206,683.197 429.209,683.856L429.209,683.858C429.216,684.623 429.53,685.653 430.988,686.214C431.054,686.239 431.123,686.251 431.19,686.251C431.303,686.251 431.414,686.218 431.509,686.152C431.663,686.047 431.754,685.874 431.754,685.688L431.754,682.1Z" style="fill:rgb(233,165,4);fill-rule:nonzero;"/>
            <path d="M436.25,691.845C436.784,692.2 436.865,692.637 436.863,693.006C436.858,693.579 436.662,694.029 436.25,694.397L436.25,691.845ZM435.383,695.882C435.475,695.94 435.581,695.971 435.687,695.971C435.767,695.971 435.847,695.954 435.921,695.92C436.084,695.845 436.276,695.753 436.452,695.643C437.448,695.035 437.98,694.126 437.99,693.015C437.996,692.147 437.631,690.996 435.856,690.437C435.685,690.383 435.499,690.413 435.354,690.52C435.209,690.625 435.124,690.794 435.124,690.974L435.124,695.407C435.124,695.599 435.221,695.778 435.383,695.882Z" style="fill:rgb(233,165,4);fill-rule:nonzero;"/>
        </g>
    </g>
</svg>
