<?xml version="1.0" encoding="UTF-8" standalone="no"?>
<!DOCTYPE svg PUBLIC "-//W3C//DTD SVG 1.1//EN" "http://www.w3.org/Graphics/SVG/1.1/DTD/svg11.dtd">
<svg width="100%" height="100%" viewBox="0 0 186 186" version="1.1" xmlns="http://www.w3.org/2000/svg" xmlns:xlink="http://www.w3.org/1999/xlink" xml:space="preserve" xmlns:serif="http://www.serif.com/" style="fill-rule:evenodd;clip-rule:evenodd;stroke-linejoin:round;stroke-miterlimit:2;">
    <g transform="matrix(1,0,0,1,-1712,-2506)">
        <g transform="matrix(4.16667,0,0,4.16667,0,0)">
            <path d="M427.837,616.052L427.837,607.961L438.813,607.961L438.813,616.052L427.837,616.052ZM433.736,617.159L433.736,617.179L439.375,617.179C439.687,617.179 439.939,616.927 439.939,616.615L439.939,607.397C439.939,607.086 439.687,606.834 439.375,606.834L427.274,606.834C426.963,606.834 426.71,607.086 426.71,607.397L426.71,616.615C426.71,616.927 426.963,617.179 427.274,617.179L432.915,617.179L432.915,617.159L433.736,617.159Z" style="fill:rgb(233,165,4);fill-rule:nonzero;"/>
            <path d="M423.362,635.298L412.387,635.298L412.387,627.206L423.362,627.206L423.362,635.298ZM424.488,635.861L424.488,626.643C424.488,626.332 424.236,626.08 423.925,626.08L411.823,626.08C411.512,626.08 411.26,626.332 411.26,626.643L411.26,635.861C411.26,636.172 411.512,636.424 411.823,636.424L423.925,636.424C424.236,636.424 424.488,636.172 424.488,635.861Z" style="fill:rgb(233,165,4);fill-rule:nonzero;"/>
            <path d="M438.813,635.298L427.838,635.298L427.838,627.206L438.813,627.206L438.813,635.298ZM427.274,626.08C426.963,626.08 426.711,626.332 426.711,626.643L426.711,635.861C426.711,636.172 426.963,636.424 427.274,636.424L439.376,636.424C439.687,636.424 439.939,636.172 439.939,635.861L439.939,626.643C439.939,626.332 439.687,626.08 439.376,626.08L427.274,626.08Z" style="fill:rgb(233,165,4);fill-rule:nonzero;"/>
            <path d="M454.263,635.298L443.289,635.298L443.289,627.206L454.263,627.206L454.263,635.298ZM442.725,626.08C442.414,626.08 442.162,626.332 442.162,626.643L442.162,635.861C442.162,636.172 442.414,636.424 442.725,636.424L454.827,636.424C455.138,636.424 455.39,636.172 455.39,635.861L455.39,626.643C455.39,626.332 455.138,626.08 454.827,626.08L442.725,626.08Z" style="fill:rgb(233,165,4);fill-rule:nonzero;"/>
            <path d="M418.204,625.293L419.024,625.293L419.024,622.225L432.915,622.225L432.915,625.293L433.736,625.293L433.736,622.225L447.625,622.225L447.625,625.293L448.446,625.293L448.446,621.403L433.736,621.403L433.736,617.179L433.736,617.159L432.915,617.159L432.915,621.403L418.204,621.403L418.204,625.293Z" style="fill:rgb(233,165,4);fill-rule:nonzero;"/>
        </g>
    </g>
</svg>
