<?xml version="1.0" encoding="UTF-8" standalone="no"?>
<!DOCTYPE svg PUBLIC "-//W3C//DTD SVG 1.1//EN" "http://www.w3.org/Graphics/SVG/1.1/DTD/svg11.dtd">
<svg width="100%" height="100%" viewBox="0 0 125 125" version="1.1" xmlns="http://www.w3.org/2000/svg" xmlns:xlink="http://www.w3.org/1999/xlink" xml:space="preserve" xmlns:serif="http://www.serif.com/" style="fill-rule:evenodd;clip-rule:evenodd;stroke-linejoin:round;stroke-miterlimit:2;">
    <g transform="matrix(1,0,0,1,-4164,-2267)">
        <g transform="matrix(4.16667,0,0,4.16667,0,0)">
            <path d="M1016.39,555.207L1016.45,546.442C1018.71,546.602 1020.94,547.462 1022.59,548.814L1016.39,555.207ZM1015.92,545.339C1015.77,545.332 1015.64,545.392 1015.53,545.492C1015.43,545.593 1015.37,545.73 1015.37,545.875L1015.3,556.542C1015.3,556.763 1015.43,556.961 1015.64,557.045C1015.7,557.072 1015.77,557.085 1015.84,557.085C1015.98,557.085 1016.12,557.028 1016.23,556.921L1023.76,549.156C1023.86,549.053 1023.92,548.912 1023.92,548.767C1023.91,548.622 1023.85,548.484 1023.74,548.386C1021.74,546.535 1018.82,545.396 1015.92,545.339Z" style="fill:rgb(233,165,4);fill-rule:nonzero;"/>
            <path d="M1014.45,572.617C1007.2,572.617 1001.31,566.725 1001.31,559.481C1001.31,552.208 1006.7,546.49 1013.64,546.349L1013.64,559.481C1013.64,559.681 1013.75,559.864 1013.93,559.958L1025.77,566.229C1023.83,569.957 1019.16,572.617 1014.45,572.617ZM1026.73,565.519L1014.72,559.156L1014.72,545.813C1014.72,545.519 1014.48,545.279 1014.19,545.274L1014.08,545.271C1014.02,545.269 1013.96,545.267 1013.9,545.267C1006.24,545.267 1000.23,551.511 1000.23,559.481C1000.23,567.319 1006.61,573.696 1014.45,573.696C1019.76,573.696 1025.02,570.55 1026.97,566.216C1027.09,565.956 1026.98,565.651 1026.73,565.519Z" style="fill:rgb(233,165,4);fill-rule:nonzero;"/>
            <path d="M1026.6,553.424C1026.72,553.671 1026.84,553.922 1026.95,554.176L1024.35,562.462L1023.85,562.196L1026.6,553.424ZM1027.76,557.085L1025.83,563.256L1025.33,562.989L1027.54,555.95C1027.63,556.326 1027.71,556.705 1027.76,557.085ZM1026.89,563.825L1026.81,563.782L1027.75,560.788C1027.59,561.91 1027.31,562.926 1026.89,563.825ZM1022.86,561.669L1022.37,561.402L1025.46,551.56C1025.59,551.744 1025.73,551.937 1025.86,552.134L1022.86,561.669ZM1021.38,560.876L1020.89,560.609L1023.82,551.249L1024.56,550.488C1024.58,550.509 1024.6,550.53 1024.62,550.553L1021.38,560.876ZM1019.9,560.082L1019.41,559.816L1021.27,553.872L1022.13,552.991L1019.9,560.082ZM1018.42,559.289L1017.92,559.022L1018.72,556.496L1019.57,555.614L1018.42,559.289ZM1016.94,558.496L1016.83,558.437L1017.02,558.238L1016.94,558.496ZM1026.55,551.887C1026.25,551.415 1025.93,550.973 1025.6,550.569C1025.54,550.505 1025.47,550.464 1025.39,550.449C1025.38,550.367 1025.35,550.286 1025.3,550.224C1025.12,550.03 1024.97,549.864 1024.82,549.717C1024.75,549.649 1024.67,549.609 1024.56,549.611C1024.47,549.612 1024.38,549.651 1024.31,549.721L1023.25,550.809C1023.21,550.85 1023.18,550.898 1023.16,550.952L1023.05,551.326C1022.92,551.278 1022.77,551.305 1022.67,551.408L1020.7,553.432C1020.66,553.473 1020.63,553.521 1020.61,553.575L1020.49,553.95C1020.36,553.901 1020.21,553.929 1020.11,554.032L1018.14,556.056C1018.1,556.096 1018.07,556.146 1018.06,556.199L1017.94,556.574C1017.81,556.526 1017.66,556.553 1017.56,556.655L1015.98,558.276C1015.9,558.357 1015.87,558.471 1015.88,558.582C1015.9,558.694 1015.97,558.791 1016.07,558.845L1016.98,559.335C1017.04,559.363 1017.1,559.378 1017.15,559.378C1017.16,559.378 1017.17,559.373 1017.18,559.372C1017.22,559.431 1017.26,559.482 1017.32,559.516L1018.47,560.128C1018.52,560.156 1018.58,560.171 1018.63,560.171C1018.65,560.171 1018.65,560.166 1018.66,560.165C1018.7,560.224 1018.74,560.275 1018.8,560.31L1019.95,560.921C1020,560.949 1020.06,560.964 1020.11,560.964C1020.13,560.964 1020.13,560.959 1020.14,560.958C1020.18,561.017 1020.22,561.069 1020.28,561.103L1021.43,561.715C1021.48,561.743 1021.54,561.757 1021.6,561.757C1021.61,561.757 1021.61,561.752 1021.62,561.752C1021.66,561.811 1021.7,561.862 1021.77,561.896L1022.91,562.508C1022.96,562.536 1023.02,562.551 1023.08,562.551C1023.09,562.551 1023.1,562.546 1023.1,562.545C1023.14,562.604 1023.18,562.655 1023.25,562.689L1024.39,563.301C1024.44,563.329 1024.5,563.344 1024.56,563.344C1024.57,563.344 1024.58,563.339 1024.59,563.338C1024.62,563.396 1024.66,563.448 1024.73,563.482L1025.87,564.094C1025.92,564.122 1025.98,564.137 1026.04,564.137C1026.05,564.137 1026.06,564.132 1026.07,564.131C1026.1,564.189 1026.15,564.242 1026.21,564.275L1026.88,564.635C1026.93,564.663 1026.99,564.678 1027.05,564.678C1027.08,564.678 1027.12,564.672 1027.15,564.661C1027.25,564.633 1027.32,564.568 1027.37,564.482C1028.19,562.891 1028.61,560.947 1028.61,558.706C1028.61,558.492 1028.6,558.276 1028.59,558.045C1028.58,557.887 1028.47,557.761 1028.32,557.722L1028.47,557.222C1028.49,557.171 1028.49,557.117 1028.49,557.064C1028.37,556.234 1028.17,555.408 1027.88,554.607C1027.84,554.493 1027.75,554.406 1027.64,554.379L1027.67,554.267C1027.7,554.187 1027.69,554.101 1027.66,554.022C1027.42,553.439 1027.14,552.868 1026.82,552.325C1026.77,552.241 1026.69,552.185 1026.6,552.161C1026.62,552.067 1026.61,551.969 1026.55,551.887Z" style="fill:rgb(233,165,4);fill-rule:nonzero;"/>
        </g>
    </g>
</svg>
