<?xml version="1.0" encoding="UTF-8" standalone="no"?>
<!DOCTYPE svg PUBLIC "-//W3C//DTD SVG 1.1//EN" "http://www.w3.org/Graphics/SVG/1.1/DTD/svg11.dtd">
<svg width="100%" height="100%" viewBox="0 0 161 161" version="1.1" xmlns="http://www.w3.org/2000/svg" xmlns:xlink="http://www.w3.org/1999/xlink" xml:space="preserve" xmlns:serif="http://www.serif.com/" style="fill-rule:evenodd;clip-rule:evenodd;stroke-linejoin:round;stroke-miterlimit:2;">
    <g transform="matrix(1,0,0,1,-1728,-1970)">
        <g transform="matrix(4.16667,0,0,4.16667,0,0)">
            <path d="M447.447,490.94C447.455,491.227 447.447,491.509 447.42,491.784C447.389,492.121 447.333,492.45 447.253,492.77C446.896,494.211 446.077,495.482 444.985,496.632C443.503,498.19 441.951,499.682 440.43,501.202C438.835,502.798 437.245,504.401 435.637,505.984C435.361,506.256 434.964,506.691 434.395,506.736C433.981,506.768 433.698,506.607 433.421,506.345C433.173,506.11 433.093,505.518 433.189,505.148C433.292,504.747 433.648,504.384 433.958,504.067C434.685,503.323 435.426,502.591 436.161,501.854C436.519,501.495 436.875,501.135 437.228,500.77C437.603,500.382 438.699,499.564 438.084,498.988C437.519,498.459 436.71,499.479 436.371,499.821C436.013,500.181 435.654,500.54 435.291,500.894C433.602,502.543 431.936,504.216 430.206,505.82C429.423,506.546 428.81,506.491 428.274,505.862C427.767,505.266 427.864,504.669 428.601,503.931C430.514,502.014 432.431,500.101 434.345,498.185C434.614,497.916 434.846,497.74 434.895,497.33C434.931,497.026 434.82,496.757 434.508,496.71C433.981,496.632 433.752,496.833 433.414,497.17C431.16,499.423 428.91,501.679 426.653,503.928C425.912,504.666 425.084,504.65 424.543,503.911C424.139,503.358 424.251,502.733 424.91,502.072C427.195,499.777 429.486,497.486 431.782,495.201C432.156,494.829 432.45,494.411 431.991,493.981C431.553,493.571 431.175,493.934 430.84,494.27C429.079,496.039 427.314,497.803 425.544,499.564C425.309,499.798 425.062,500.037 424.774,500.195C424.125,500.552 423.308,500.227 423.033,499.539C422.75,498.834 423.113,498.387 423.561,497.941C426.489,495.022 429.418,492.103 432.321,489.159L433.521,490.364C433.929,490.775 434.466,490.98 435.004,490.979C435.539,490.979 436.073,490.777 436.481,490.371L436.711,490.142C437.107,489.749 437.325,489.223 437.327,488.663C437.328,488.137 437.131,487.645 436.782,487.259L434.122,484.572L433.6,484.047L434.31,483.333C435.409,482.496 436.391,482.202 437.199,482.162C438.68,482.028 439.99,482.802 439.99,482.802L440.777,482.016L443.276,479.516L451.073,487.313L447.447,490.94ZM443.618,501.327C443.343,502.015 442.526,502.34 441.877,501.983C441.813,501.948 441.752,501.908 441.693,501.867C442.278,501.287 442.857,500.703 443.438,500.121C443.69,500.454 443.819,500.825 443.618,501.327ZM442.107,505.699C441.566,506.438 440.739,506.454 439.998,505.716C439.63,505.349 439.263,504.98 438.895,504.613C439.502,504.02 440.111,503.431 440.716,502.835C441.057,503.177 441.4,503.518 441.742,503.86C442.4,504.521 442.512,505.146 442.107,505.699ZM438.376,507.65C437.841,508.28 437.228,508.335 436.445,507.609C436.324,507.496 436.205,507.381 436.084,507.268C436.255,507.155 436.419,507.028 436.57,506.882C437.019,506.45 437.46,506.011 437.908,505.577C437.955,505.625 438.002,505.671 438.05,505.719C438.787,506.458 438.884,507.054 438.376,507.65ZM433.23,508.133C432.954,508.395 432.669,508.556 432.256,508.524C431.686,508.479 431.291,508.044 431.014,507.772C430.845,507.605 430.678,507.437 430.509,507.27C430.905,507.057 431.323,506.763 431.773,506.385C432.052,506.826 432.143,507.083 432.686,507.393C432.929,507.532 433.186,507.635 433.447,507.705C433.403,507.88 433.331,508.037 433.23,508.133ZM421.652,498.405C420.567,497.259 419.754,495.993 419.397,494.558C419.318,494.238 419.262,493.91 419.23,493.572C419.205,493.297 419.196,493.016 419.204,492.728L415.578,489.101L423.375,481.304L425.874,483.804L426.039,483.968L426.028,483.995L427.236,484.095L427.315,483.9C427.791,483.575 429.768,482.479 432.407,484.49L435.899,487.998C436.074,488.174 436.17,488.409 436.169,488.66C436.169,488.912 436.071,489.146 435.895,489.321L435.665,489.551C435.298,489.915 434.705,489.914 434.341,489.548L430.769,485.959L429.901,486.566L430.867,487.698L431.286,488.119C430.875,488.529 430.465,488.94 430.054,489.351C429.952,489.453 429.895,489.564 429.865,489.676C429.845,489.697 429.825,489.719 429.804,489.74C427.404,492.144 424.995,494.541 422.601,496.95C422.122,497.432 421.807,497.919 421.652,498.405ZM442.985,478.171L439.733,481.422C439.569,481.399 439.406,481.384 439.243,481.372C438.078,480.9 436.006,480.568 433.574,482.439L433.517,482.49L432.719,483.291C429.715,481.253 427.33,482.509 426.659,482.952L423.667,479.959L414.232,489.393L417.809,492.969C417.836,494.572 418.406,496.214 419.513,497.875C419.969,498.559 420.502,499.189 421.079,499.774C421.816,500.521 422.563,501.259 423.305,502.001C422.5,503.174 422.846,504.144 423.685,505.018C424.555,505.924 425.356,506.031 426.537,505.689C426.547,505.686 426.559,505.69 426.565,505.699C427.411,506.967 428.192,507.581 429.034,507.649C429.384,507.988 429.729,508.332 430.081,508.67C431.122,509.675 432.709,509.9 433.965,509.181C434.508,508.871 434.6,508.614 434.877,508.173C437.001,509.955 438.417,509.988 440.086,507.488C440.092,507.478 440.104,507.474 440.114,507.477C441.294,507.819 442.096,507.712 442.966,506.806C443.853,505.883 444.19,504.853 443.199,503.589C443.192,503.58 442.937,503.247 442.949,503.248C443.655,503.27 444.214,502.82 444.523,502.421C445.344,501.359 445.294,500.244 444.413,499.145C444.798,498.758 445.188,498.375 445.572,497.986C446.149,497.401 446.682,496.771 447.138,496.087C448.245,494.426 448.815,492.784 448.843,491.18L452.418,487.604L442.985,478.171Z" style="fill:rgb(233,165,4);fill-rule:nonzero;"/>
        </g>
    </g>
</svg>
