<?xml version="1.0" encoding="UTF-8" standalone="no"?>
<!DOCTYPE svg PUBLIC "-//W3C//DTD SVG 1.1//EN" "http://www.w3.org/Graphics/SVG/1.1/DTD/svg11.dtd">
<svg width="100%" height="100%" viewBox="0 0 173 173" version="1.1" xmlns="http://www.w3.org/2000/svg" xmlns:xlink="http://www.w3.org/1999/xlink" xml:space="preserve" xmlns:serif="http://www.serif.com/" style="fill-rule:evenodd;clip-rule:evenodd;stroke-linejoin:round;stroke-miterlimit:2;">
    <g transform="matrix(1,0,0,1,-1989,-1976)">
        <g transform="matrix(4.16667,0,0,4.16667,0,0)">
            <path d="M497.717,483.576L500.127,483.576L500.127,495.562L502.64,495.562L502.64,497.325L494.824,497.325L494.824,495.562L497.347,495.562L497.347,486.018L494.828,488.01L494.364,485.896L497.717,483.576ZM494.214,488.254C494.259,488.452 494.399,488.61 494.591,488.68C494.782,488.746 494.997,488.71 495.15,488.587L496.695,487.364L496.695,494.909L494.758,494.909C494.604,494.909 494.453,494.972 494.345,495.08C494.235,495.189 494.172,495.341 494.172,495.496L494.172,497.391C494.172,497.546 494.235,497.698 494.342,497.804C494.451,497.914 494.603,497.978 494.758,497.978L502.705,497.978C502.863,497.978 503.012,497.916 503.118,497.807C503.23,497.696 503.292,497.549 503.292,497.391L503.292,495.496C503.292,495.339 503.23,495.191 503.122,495.083C503.012,494.971 502.864,494.909 502.705,494.909L500.779,494.909L500.779,483.511C500.779,483.353 500.718,483.204 500.611,483.099C500.5,482.986 500.353,482.924 500.193,482.924L497.697,482.924C497.576,482.924 497.46,482.96 497.363,483.028L493.957,485.385C493.76,485.521 493.666,485.76 493.717,485.993L494.214,488.254Z" style="fill:white;fill-rule:nonzero;"/>
            <path d="M488.422,497.972L488.993,497.901C489.045,497.938 489.095,497.979 489.136,498.031C489.256,498.18 489.308,498.371 489.281,498.569L488.937,501.144C488.876,501.596 488.978,501.999 489.224,502.278C489.398,502.479 489.636,502.601 489.904,502.641C490.246,502.817 490.676,502.816 491.115,502.63L493.503,501.614C493.594,501.575 493.688,501.556 493.781,501.556C493.909,501.636 494.013,501.755 494.068,501.907L494.098,501.986L485.407,509.822L485.277,505.918C485.268,505.632 485.045,505.398 484.76,505.375L480.588,505.036L488.422,497.972ZM486.142,496.464C485.968,496.45 485.899,496.399 485.891,496.39C485.89,496.386 485.889,496.378 485.891,496.365C485.895,496.328 485.917,496.253 485.993,496.146L487.495,494.027C487.568,493.924 487.629,493.816 487.678,493.704C487.827,493.368 487.869,492.997 487.797,492.63C487.701,492.143 487.412,491.726 486.986,491.456L484.791,490.066C484.72,490.021 484.674,489.979 484.646,489.947C484.646,489.946 484.645,489.945 484.644,489.945C484.616,489.912 484.606,489.891 484.605,489.884C484.608,489.869 484.653,489.796 484.809,489.717L485.998,489.111L487.122,488.538C487.573,488.309 487.898,487.919 488.04,487.442C488.174,486.986 488.123,486.508 487.898,486.085C487.888,486.064 487.879,486.044 487.867,486.024L486.571,483.774C486.505,483.661 486.491,483.585 486.489,483.549C486.488,483.536 486.489,483.529 486.49,483.525C486.492,483.522 486.501,483.517 486.515,483.511C486.548,483.494 486.62,483.473 486.747,483.473L487.416,483.48L489.367,483.504C489.867,483.504 490.331,483.308 490.673,482.952C490.844,482.773 490.974,482.567 491.058,482.343C491.066,482.321 491.068,482.298 491.076,482.276C491.145,482.069 491.181,481.852 491.172,481.625L491.068,479.03C491.062,478.856 491.103,478.78 491.137,478.77C491.164,478.77 491.242,478.776 491.366,478.845L493.242,479.858L493.652,480.079C493.679,480.094 493.708,480.104 493.736,480.118C493.981,480.235 494.249,480.3 494.517,480.3C494.985,480.3 495.417,480.119 495.744,479.811C495.905,479.657 496.042,479.477 496.143,479.266L497.258,476.919C497.28,476.874 497.3,476.84 497.32,476.811C497.355,476.76 497.385,476.732 497.401,476.721C497.407,476.716 497.414,476.712 497.416,476.711C497.421,476.712 497.438,476.72 497.458,476.732C497.468,476.739 497.479,476.748 497.492,476.759C497.524,476.787 497.563,476.827 497.607,476.893L498.59,478.354L499.057,479.048C499.169,479.216 499.309,479.358 499.463,479.478C499.773,479.715 500.153,479.852 500.552,479.852C500.669,479.852 500.784,479.837 500.897,479.814C501.164,479.763 501.417,479.653 501.641,479.485L502.49,478.848L503.718,477.927C503.832,477.84 503.904,477.822 503.938,477.818C503.944,477.817 503.952,477.816 503.955,477.815C503.968,477.825 504.02,477.894 504.04,478.066L504.321,480.647C504.363,481.028 504.52,481.371 504.755,481.642C504.843,481.742 504.943,481.831 505.05,481.91C505.423,482.184 505.901,482.317 506.406,482.235L508.971,481.82C509.113,481.797 509.223,481.827 509.231,481.832C509.232,481.835 509.234,481.844 509.236,481.853C509.242,481.888 509.24,481.965 509.19,482.094L508.24,484.51C508.217,484.567 508.198,484.626 508.181,484.686C508.181,484.686 508.181,484.687 508.18,484.688C508.177,484.7 508.174,484.714 508.171,484.728C508.084,485.06 508.094,485.403 508.199,485.729C508.222,485.799 508.248,485.868 508.28,485.937C508.319,486.021 508.37,486.099 508.421,486.175C508.642,486.505 508.96,486.755 509.348,486.886L511.186,487.5L511.811,487.71C511.922,487.746 511.98,487.786 512.011,487.813C512.025,487.827 512.036,487.838 512.038,487.842C512.038,487.852 512.023,487.893 511.979,487.949C511.955,487.979 511.925,488.014 511.879,488.053L510.647,489.118L509.915,489.752C509.533,490.081 509.31,490.536 509.286,491.033C509.263,491.53 509.442,492.005 509.792,492.37L511.591,494.243C511.711,494.369 511.729,494.453 511.729,494.465C511.728,494.468 511.722,494.473 511.717,494.478C511.715,494.479 511.715,494.48 511.713,494.483L511.712,494.483C511.684,494.509 511.617,494.55 511.49,494.58L508.962,495.171C508.471,495.285 508.061,495.585 507.809,496.016C507.754,496.11 507.708,496.21 507.672,496.311C507.671,496.314 507.669,496.317 507.668,496.321C507.631,496.424 507.605,496.528 507.588,496.635L507.588,496.637C507.355,497.015 507.249,497.319 507.354,497.676L508.076,500.169L505.6,499.526C505.499,499.5 505.395,499.486 505.291,499.478C505.239,499.473 505.188,499.468 505.135,499.468C505.04,499.468 504.948,499.478 504.856,499.491C504.836,499.494 504.816,499.497 504.797,499.501C504.717,499.516 504.639,499.537 504.563,499.563C504.531,499.573 504.5,499.586 504.469,499.598C504.42,499.617 504.374,499.64 504.328,499.663C504.267,499.693 504.209,499.728 504.153,499.765C504.134,499.777 504.114,499.79 504.096,499.804C504.009,499.866 503.927,499.936 503.852,500.013C503.852,500.013 503.852,500.014 503.851,500.015C503.46,500.281 503.189,500.68 503.093,501.15L502.645,503.337C502.621,503.454 502.638,503.573 502.686,503.68C502.668,503.672 502.646,503.659 502.624,503.646C502.619,503.643 502.615,503.64 502.61,503.637C502.583,503.619 502.554,503.597 502.521,503.566L500.598,501.82C500.456,501.691 500.294,501.592 500.124,501.515C499.891,501.409 499.641,501.347 499.382,501.347C499.071,501.347 498.771,501.431 498.505,501.58C498.414,501.631 498.328,501.688 498.246,501.756C498.152,501.833 498.063,501.919 497.984,502.016L496.34,504.026C496.318,504.054 496.297,504.075 496.277,504.095C496.253,504.118 496.231,504.137 496.211,504.15C496.21,504.152 496.208,504.154 496.206,504.155C496.203,504.157 496.203,504.157 496.2,504.158C496.168,504.18 496.146,504.188 496.136,504.189C496.132,504.188 496.125,504.183 496.116,504.175C496.116,504.175 496.115,504.174 496.114,504.173C496.085,504.146 496.039,504.085 495.995,503.967L495.396,502.326C495.547,502.172 495.601,501.944 495.525,501.739L495.483,501.627C495.31,501.149 494.961,500.777 494.501,500.578C494.346,500.511 494.183,500.467 494.019,500.445C493.926,500.412 493.83,500.387 493.731,500.368C493.729,500.368 493.726,500.367 493.723,500.366C493.623,500.349 493.52,500.339 493.415,500.339C493.292,500.339 493.171,500.351 493.052,500.375C493.051,500.375 493.05,500.376 493.05,500.376C492.93,500.4 492.814,500.438 492.7,500.485L492.699,500.486L490.405,501.461C490.406,501.439 490.406,501.419 490.41,501.394L490.756,498.819L490.756,498.818C490.822,498.314 490.686,497.821 490.371,497.432C490.079,497.07 489.665,496.847 489.202,496.783L489.201,496.783C489.139,496.761 489.076,496.741 489.01,496.726C488.919,496.702 488.827,496.683 488.73,496.675L487.855,496.604L486.142,496.464ZM508.904,501.207C508.94,501.17 508.972,501.13 509.002,501.089C509.097,501.023 509.186,500.948 509.257,500.854C509.497,500.532 509.554,500.094 509.417,499.62L509.185,498.815L515.37,505.675L511.079,506.072C510.814,506.097 510.602,506.304 510.571,506.568L510.135,510.3L503.977,503.474L504.456,501.135C504.473,501.05 504.507,500.973 504.551,500.903C504.702,500.823 504.876,500.801 505.049,500.846L507.563,501.498C508.1,501.638 508.589,501.531 508.904,501.207ZM478.708,505.673C478.78,505.886 478.972,506.035 479.196,506.054L484.167,506.457L484.322,511.071C484.329,511.29 484.462,511.485 484.665,511.57C484.735,511.601 484.81,511.615 484.884,511.615C485.021,511.615 485.156,511.565 485.262,511.471L494.514,503.128L494.959,504.346C495.175,504.939 495.614,505.293 496.134,505.293C496.519,505.293 496.896,505.091 497.194,504.724L498.838,502.713C498.975,502.546 499.173,502.449 499.382,502.449C499.504,502.449 499.687,502.481 499.856,502.637L501.78,504.383C502.08,504.656 502.416,504.801 502.748,504.801C502.975,504.801 503.224,504.729 503.438,504.559L510.131,511.979C510.24,512.099 510.393,512.164 510.549,512.164C510.606,512.164 510.665,512.155 510.721,512.138C510.931,512.07 511.083,511.886 511.109,511.666L511.637,507.152L516.593,506.693C516.805,506.674 516.987,506.536 517.065,506.337C517.143,506.139 517.102,505.913 516.959,505.755L508.733,496.633C508.743,496.612 508.75,496.592 508.761,496.572C508.857,496.406 509.018,496.29 509.213,496.244L511.741,495.654C512.278,495.528 512.659,495.211 512.784,494.781C512.913,494.351 512.768,493.877 512.387,493.479L510.588,491.606C510.451,491.463 510.379,491.277 510.388,491.086C510.397,490.894 510.484,490.717 510.636,490.587L512.601,488.888C513.017,488.527 513.206,488.069 513.119,487.63C513.031,487.189 512.682,486.838 512.161,486.663L509.699,485.839C509.509,485.776 509.36,485.646 509.278,485.471C509.198,485.297 509.193,485.099 509.268,484.913L510.216,482.498C510.406,482.017 510.38,481.561 510.144,481.213C509.874,480.818 509.405,480.633 508.794,480.732L506.23,481.146C505.819,481.213 505.462,480.933 505.417,480.527L505.135,477.946C505.044,477.096 504.475,476.714 503.951,476.714C503.654,476.714 503.344,476.828 503.056,477.045L500.979,478.604C500.658,478.845 500.194,478.765 499.971,478.433L498.522,476.277C498.231,475.846 497.839,475.608 497.416,475.608C496.935,475.608 496.513,475.915 496.262,476.446L495.146,478.792C494.976,479.151 494.532,479.302 494.175,479.109L491.892,477.874C491.308,477.559 490.694,477.618 490.321,478.006C490.148,478.187 489.945,478.519 489.967,479.074L490.07,481.669C490.078,481.866 490.01,482.05 489.877,482.188C489.745,482.325 489.563,482.4 489.358,482.4L486.734,482.369C486.194,482.369 485.757,482.589 485.537,482.973C485.313,483.358 485.342,483.852 485.615,484.325L486.913,486.575C487.011,486.747 487.036,486.943 486.982,487.128C486.928,487.313 486.8,487.464 486.622,487.555L484.309,488.733C483.817,488.983 483.524,489.384 483.503,489.831C483.483,490.278 483.738,490.704 484.202,490.998L486.397,492.388C486.564,492.494 486.678,492.656 486.715,492.845C486.752,493.034 486.71,493.227 486.594,493.39L485.092,495.509C484.774,495.958 484.701,496.449 484.891,496.855C485.081,497.261 485.503,497.52 486.053,497.563L487.098,497.648L478.865,505.074C478.698,505.225 478.636,505.46 478.708,505.673Z" style="fill:white;fill-rule:nonzero;"/>
        </g>
    </g>
</svg>
