<svg id="Layer_1" data-name="Layer 1" xmlns="http://www.w3.org/2000/svg" viewBox="0 0 3430.6 1066.78"><defs><style>.cls-1{fill:#689f38;}.cls-1,.cls-2,.cls-3,.cls-4,.cls-5,.cls-6,.cls-8,.cls-9{fill-rule:evenodd;}.cls-2{fill:#79b22f;}.cls-3{fill:#90d331;}.cls-4{fill:#42a5f5;}.cls-5{fill:#82b1ff;}.cls-6{fill:#98e03b;}.cls-10,.cls-11,.cls-7,.cls-8{fill:#2494d1;}.cls-9{fill:#80b228;}.cls-10{font-size:354.45px;}.cls-10,.cls-11{font-family:Montserrat-Bold, Montserrat;font-weight:700;}.cls-11{font-size:748.13px;}</style></defs><title>1024 px logo</title><path class="cls-1" d="M1031.48,2292.63c78.26-78,23.35-252,84.83-293.18,11.12,42.82-8.62,135.88-23.69,190.64,52.47-96.48,31.4-231.87,94.89-276C1191.4,2042.76,1129.63,2221.94,1031.48,2292.63ZM1194,2025.55c-18.1,90.58-58.89,180.52-113.65,240.49-99.12,108.58-212.43,78.48-91-76.82,40.85-49.31,91.78-108.84,64.8-185.58-84.48,167.9-274.5,143.19-274.5,632.29,310.51-169.5,466.71-439.29,493.73-779.59C1225.55,1879.63,1209.42,1948.49,1194,2025.55Z" transform="translate(-249.4 -1577)"/><path class="cls-2" d="M1054.17,2003.64c-84.48,167.9-274.5,143.19-274.5,632.29C889.48,2576,980,2503.5,1052.3,2419.8c-100.7,99.33-224.35-42.69-62.93-230.58C1030.22,2139.91,1081.15,2080.38,1054.17,2003.64Z" transform="translate(-249.4 -1577)"/><path class="cls-3" d="M1054.25,2006c-36.81,60-89.42,100.08-136.53,150.93-123.66,133.4-142,313.67-143.41,486.88A1113.94,1113.94,0,0,0,905.94,2556c-82.45-39.54-57.73-207.46-30.87-277.61C924.23,2150,1044.79,2100.11,1054.25,2006Z" transform="translate(-249.4 -1577)"/><path class="cls-1" d="M335.29,1914c63.49,44.17,42.41,179.56,94.89,276-15.08-54.76-34.81-147.82-23.69-190.64,61.47,41.14,6.57,215.21,84.83,293.18C393.16,2221.9,331.4,2042.72,335.29,1914Zm-85.89-57.7c27,340.29,183.22,610.08,493.72,779.58,0-489.1-190-464.39-274.5-632.29-27,76.74,24,136.27,64.81,185.58,121.43,155.3,8.12,185.4-91,76.83-54.76-60-95.56-149.92-113.66-240.5C313.38,1948.45,297.24,1879.59,249.4,1856.31Z" transform="translate(-249.4 -1577)"/><path class="cls-2" d="M468.62,2003.6c84.49,167.9,274.5,143.19,274.5,632.29-109.8-59.94-200.31-132.42-272.63-216.13,100.71,99.33,224.35-42.69,62.94-230.58C492.58,2139.87,441.64,2080.34,468.62,2003.6Z" transform="translate(-249.4 -1577)"/><path class="cls-3" d="M468.54,2004.32c36.64,60.06,89,100.09,135.88,150.93,123.05,133.41,141.26,313.67,142.71,486.89a1106.9,1106.9,0,0,1-131-87.84c82-39.54,57.46-207.45,30.72-277.6C597.93,2148.31,478,2098.46,468.54,2004.32Z" transform="translate(-249.4 -1577)"/><path class="cls-4" d="M931,1943.93a195.56,195.56,0,0,1,30.51,74.1c-10.33,9.13-20.79,18.07-31.24,27-4.57-88.22-80-158.4-172.25-158.4S590.32,1956.8,585.74,2045c-10.45-8.92-20.91-17.86-31.23-27A195.13,195.13,0,0,1,585,1943.94a151.91,151.91,0,0,0-127.52,7.3C535,2072.58,718.41,2147.13,758,2348.44c39.59-201.31,223-275.86,300.5-397.2A152,152,0,0,0,931,1943.93Z" transform="translate(-249.4 -1577)"/><path class="cls-5" d="M758,2257.25v91.19c39.59-201.31,223-275.86,300.5-397.2C970.34,2056.39,811.62,2128.76,758,2257.25Z" transform="translate(-249.4 -1577)"/><path class="cls-5" d="M457.5,1951.24C535,2072.58,718.41,2147.13,758,2348.44v-91.19C704.38,2128.76,545.66,2056.39,457.5,1951.24Z" transform="translate(-249.4 -1577)"/><path class="cls-1" d="M904,1707.49c101.68,14.59,200.55,43.81,295.4,84.46q-1.69,56.68-8.6,111.72c10.06-28.86,35.43-56.54,57.25-70.81,1.49-24.08,2-48.07,2.63-72.19-122.92-53.41-240.57-90.7-368.57-105.49A140.66,140.66,0,0,1,904,1707.49Z" transform="translate(-249.4 -1577)"/><path class="cls-6" d="M903.93,1707.44c101.71,14.55,200.58,43.78,295.43,84.51q-1.69,56.71-8.6,111.77c5-14.4,13.85-28.52,24.16-40.81q3.76-41.13,5-83.5c-105.61-45.36-210.93-77.63-321.69-92.58A140,140,0,0,1,903.93,1707.44Z" transform="translate(-249.4 -1577)"/><path class="cls-1" d="M612,1707.45c-101.68,14.59-200.55,43.81-295.4,84.46q1.69,56.68,8.6,111.72c-10.06-28.86-35.43-56.54-57.25-70.81-1.49-24.08-2-48.07-2.63-72.18,122.92-53.42,240.57-90.71,368.57-105.49A140.55,140.55,0,0,0,612,1707.45Z" transform="translate(-249.4 -1577)"/><path class="cls-6" d="M612.07,1707.4c-101.71,14.55-200.58,43.78-295.43,84.51q1.69,56.71,8.6,111.77c-5-14.4-13.85-28.51-24.16-40.81q-3.76-41.11-5-83.5C401.68,1734,507,1701.75,617.76,1686.79A140,140,0,0,0,612.07,1707.4Z" transform="translate(-249.4 -1577)"/><ellipse class="cls-7" cx="729.62" cy="249.97" rx="82.85" ry="80.17"/><ellipse class="cls-7" cx="287.59" cy="249.97" rx="82.85" ry="80.17"/><path class="cls-8" d="M758,1619.78c-65.3,0-118.24,51.23-118.24,114.43S692.7,1848.63,758,1848.63s118.25-51.23,118.25-114.42S823.3,1619.78,758,1619.78Z" transform="translate(-249.4 -1577)"/><path class="cls-8" d="M757.47,1906.16c-91.34,0-148.32,67.1-152.69,151.46,58.12,46.45,115.91,94.11,152.7,155.4,36.78-61.28,94.57-108.95,152.68-155.39C905.79,1973.26,848.81,1906.16,757.47,1906.16Z" transform="translate(-249.4 -1577)"/><path class="cls-9" d="M1057,2264.71" transform="translate(-249.4 -1577)"/><path class="cls-9" d="M1084.15,2192.38" transform="translate(-249.4 -1577)"/><path class="cls-4" d="M758,1633.52c-46.58,0-84.34,28.8-84.34,64.32s37.76-5.48,84.34-5.48,84.34,41,84.34,5.48S804.58,1633.52,758,1633.52Z" transform="translate(-249.4 -1577)"/><path class="cls-4" d="M535.81,1757.93c-32.64,0-59.1,20.17-59.1,45.06s26.46-3.84,59.1-3.84,59.1,28.73,59.1,3.84S568.45,1757.93,535.81,1757.93Z" transform="translate(-249.4 -1577)"/><path class="cls-4" d="M978.15,1757.93c-32.64,0-59.09,20.17-59.09,45.06s26.45-3.84,59.09-3.84,59.1,28.73,59.1,3.84S1010.79,1757.93,978.15,1757.93Z" transform="translate(-249.4 -1577)"/><path class="cls-8" d="M585,1944a196,196,0,0,0-30.5,74c1.49,1.32,3,2.7,4.55,4l-101-69.83c-.21-.33-.41-.59-.61-.92A151.9,151.9,0,0,1,585,1944Z" transform="translate(-249.4 -1577)"/><path class="cls-8" d="M1058.47,1951.26c0,.07-.07.07-.14.13l-98.8,68.39c.68-.6,1.3-1.19,2-1.78a196,196,0,0,0-30.5-74A151.75,151.75,0,0,1,1058.47,1951.26Z" transform="translate(-249.4 -1577)"/><path class="cls-3" d="M460.86,2243.41,430.15,2190c-15-54.77-34.79-147.81-23.65-190.62C457.06,2033.26,428.79,2157.14,460.86,2243.41Z" transform="translate(-249.4 -1577)"/><path class="cls-2" d="M491.3,2292.59c-98.11-70.68-159.88-249.86-156-378.55,63.4,44.13,42.4,179.32,94.72,275.84l.14.13,30.71,53.4C467.73,2262,477.44,2278.78,491.3,2292.59Z" transform="translate(-249.4 -1577)"/><path class="cls-3" d="M1062.34,2243.41l30.71-53.4c15-54.77,34.79-147.81,23.65-190.62C1066.14,2033.26,1094.41,2157.14,1062.34,2243.41Z" transform="translate(-249.4 -1577)"/><path class="cls-2" d="M1031.88,2292.59c98.12-70.68,159.88-249.86,156-378.55-63.4,44.13-42.4,179.32-94.72,275.84l-.14.13-30.71,53.4C1055.46,2262,1045.74,2278.78,1031.88,2292.59Z" transform="translate(-249.4 -1577)"/><text class="cls-10" transform="translate(2006.05 970.71) scale(0.79 1)">CHECKER</text><text class="cls-11" transform="translate(1052.82 635.9) scale(0.72 1)">SHINRAI</text></svg>