<svg id="Layer_1" data-name="Layer 1" xmlns="http://www.w3.org/2000/svg" viewBox="0 0 437.69 133.45"><defs><style>.cls-1{fill:#689f38;}.cls-1,.cls-2,.cls-3,.cls-4,.cls-5,.cls-6,.cls-8,.cls-9{fill-rule:evenodd;}.cls-2{fill:#79b22f;}.cls-3{fill:#90d331;}.cls-4{fill:#42a5f5;}.cls-5{fill:#82b1ff;}.cls-6{fill:#98e03b;}.cls-10,.cls-11,.cls-7,.cls-8{fill:#2494d1;}.cls-9{fill:#80b228;}.cls-10{font-size:43.79px;}.cls-10,.cls-11{font-family:Montserrat-Bold, Montserrat;font-weight:700;}.cls-11{font-size:93.72px;}</style></defs><title>128 px logo</title><path class="cls-1" d="M1969.18,2130.89c9.79-9.75,2.92-31.5,10.61-36.65,1.39,5.35-1.08,17-3,23.83,6.56-12.06,3.92-29,11.86-34.5C1989.17,2099.66,1981.45,2122.05,1969.18,2130.89Zm20.32-33.38c-2.26,11.32-7.36,22.56-14.2,30.06-12.39,13.57-26.56,9.81-11.38-9.61,5.11-6.16,11.47-13.6,8.1-23.19-10.56,21-34.31,17.9-34.31,79,38.81-21.19,58.34-54.91,61.71-97.45C1993.44,2079.26,1991.43,2087.87,1989.5,2097.51Z" transform="translate(-1871.42 -2043.21)"/><path class="cls-2" d="M1972,2094.77c-10.56,21-34.31,17.9-34.31,79a121.28,121.28,0,0,0,34.08-27c-12.59,12.41-28-5.34-7.87-28.83C1969,2111.8,1975.39,2104.36,1972,2094.77Z" transform="translate(-1871.42 -2043.21)"/><path class="cls-3" d="M1972,2095.06c-4.6,7.5-11.18,12.51-17.07,18.86-15.45,16.68-17.74,39.21-17.92,60.86a138,138,0,0,0,16.45-11c-10.3-4.94-7.21-25.93-3.86-34.7C1955.78,2113.06,1970.85,2106.82,1972,2095.06Z" transform="translate(-1871.42 -2043.21)"/><path class="cls-1" d="M1882.16,2083.56c7.94,5.52,5.3,22.45,11.86,34.51-1.88-6.85-4.35-18.48-3-23.83,7.68,5.14.82,26.9,10.6,36.64C1889.4,2122.05,1881.67,2099.65,1882.16,2083.56Zm-10.74-7.21c3.38,42.54,22.91,76.26,61.72,97.45,0-61.14-23.75-58.05-34.31-79-3.37,9.59,3,17,8.1,23.2,15.18,19.41,1,23.17-11.38,9.6-6.84-7.49-11.94-18.74-14.2-30.06C1879.42,2087.87,1877.4,2079.26,1871.42,2076.35Z" transform="translate(-1871.42 -2043.21)"/><path class="cls-2" d="M1898.83,2094.76c10.56,21,34.31,17.9,34.31,79a121.34,121.34,0,0,1-34.08-27c12.59,12.42,28-5.34,7.87-28.82C1901.82,2111.8,1895.46,2104.35,1898.83,2094.76Z" transform="translate(-1871.42 -2043.21)"/><path class="cls-3" d="M1898.82,2094.85c4.58,7.51,11.12,12.51,17,18.87,15.38,16.67,17.66,39.21,17.84,60.86a138.3,138.3,0,0,1-16.37-11c10.25-4.94,7.18-25.93,3.84-34.7C1915,2112.85,1900,2106.62,1898.82,2094.85Z" transform="translate(-1871.42 -2043.21)"/><path class="cls-4" d="M1956.62,2087.3a24.56,24.56,0,0,1,3.82,9.27c-1.29,1.14-2.6,2.25-3.91,3.37-.57-11-10-19.8-21.53-19.8s-21,8.77-21.53,19.8c-1.31-1.12-2.62-2.23-3.91-3.37a24.56,24.56,0,0,1,3.82-9.27,19,19,0,0,0-15.94.92c9.68,15.16,32.61,24.48,37.56,49.65,5-25.17,27.88-34.49,37.56-49.65A19,19,0,0,0,1956.62,2087.3Z" transform="translate(-1871.42 -2043.21)"/><path class="cls-5" d="M1935,2126.47v11.4c5-25.17,27.88-34.49,37.56-49.65C1961.54,2101.36,1941.7,2110.41,1935,2126.47Z" transform="translate(-1871.42 -2043.21)"/><path class="cls-5" d="M1897.44,2088.22c9.68,15.16,32.61,24.48,37.56,49.65v-11.4C1928.3,2110.41,1908.46,2101.36,1897.44,2088.22Z" transform="translate(-1871.42 -2043.21)"/><path class="cls-1" d="M1953.24,2057.75a146.23,146.23,0,0,1,36.93,10.56q-.21,7.08-1.08,14a19.24,19.24,0,0,1,7.16-8.85c.19-3,.25-6,.33-9-15.36-6.68-30.07-11.34-46.07-13.19A17.47,17.47,0,0,1,1953.24,2057.75Z" transform="translate(-1871.42 -2043.21)"/><path class="cls-6" d="M1953.24,2057.74a145.84,145.84,0,0,1,36.93,10.57q-.21,7.08-1.08,14a16.93,16.93,0,0,1,3-5.11q.47-5.13.62-10.43a153.15,153.15,0,0,0-40.21-11.58A17.58,17.58,0,0,1,1953.24,2057.74Z" transform="translate(-1871.42 -2043.21)"/><path class="cls-1" d="M1916.76,2057.74a147.06,147.06,0,0,0-36.93,10.56q.21,7.08,1.08,14a19.32,19.32,0,0,0-7.16-8.86c-.19-3-.26-6-.33-9,15.36-6.68,30.07-11.34,46.07-13.19A17.47,17.47,0,0,0,1916.76,2057.74Z" transform="translate(-1871.42 -2043.21)"/><path class="cls-6" d="M1916.76,2057.74a146.23,146.23,0,0,0-36.93,10.56q.21,7.1,1.08,14a16.88,16.88,0,0,0-3-5.1q-.47-5.15-.62-10.44a153.12,153.12,0,0,1,40.21-11.57A16.92,16.92,0,0,0,1916.76,2057.74Z" transform="translate(-1871.42 -2043.21)"/><ellipse class="cls-7" cx="91.2" cy="29.48" rx="10.36" ry="10.02"/><ellipse class="cls-7" cx="35.95" cy="29.48" rx="10.36" ry="10.02"/><path class="cls-8" d="M1935,2046.78a14.31,14.31,0,1,0,14.78,14.31A14.55,14.55,0,0,0,1935,2046.78Z" transform="translate(-1871.42 -2043.21)"/><path class="cls-8" d="M1934.93,2082.58c-11.41,0-18.54,8.39-19.08,18.93,7.26,5.81,14.49,11.77,19.08,19.43,4.6-7.66,11.83-13.62,19.09-19.43C1953.47,2091,1946.35,2082.58,1934.93,2082.58Z" transform="translate(-1871.42 -2043.21)"/><path class="cls-9" d="M1972.37,2127.4" transform="translate(-1871.42 -2043.21)"/><path class="cls-9" d="M1975.77,2118.36" transform="translate(-1871.42 -2043.21)"/><path class="cls-4" d="M1935,2048.5c-5.82,0-10.54,3.6-10.54,8s4.72-.68,10.54-.68,10.54,5.12,10.54.68S1940.82,2048.5,1935,2048.5Z" transform="translate(-1871.42 -2043.21)"/><path class="cls-4" d="M1907.23,2064.05c-4.08,0-7.39,2.52-7.39,5.64s3.31-.48,7.39-.48,7.38,3.59,7.38.48S1911.31,2064.05,1907.23,2064.05Z" transform="translate(-1871.42 -2043.21)"/><path class="cls-4" d="M1962.52,2064.05c-4.08,0-7.39,2.52-7.39,5.64s3.31-.48,7.39-.48,7.39,3.59,7.39.48S1966.6,2064.05,1962.52,2064.05Z" transform="translate(-1871.42 -2043.21)"/><path class="cls-8" d="M1913.38,2087.31a24.47,24.47,0,0,0-3.82,9.25l.57.5-12.62-8.73-.08-.11A19,19,0,0,1,1913.38,2087.31Z" transform="translate(-1871.42 -2043.21)"/><path class="cls-8" d="M1972.56,2088.22s0,0,0,0l-12.35,8.54.25-.22a24.47,24.47,0,0,0-3.82-9.25A19,19,0,0,1,1972.56,2088.22Z" transform="translate(-1871.42 -2043.21)"/><path class="cls-3" d="M1897.86,2124.74l-3.84-6.68c-1.88-6.84-4.35-18.47-3-23.82C1897.38,2098.47,1893.85,2114,1897.86,2124.74Z" transform="translate(-1871.42 -2043.21)"/><path class="cls-2" d="M1901.66,2130.89c-12.26-8.84-20-31.24-19.5-47.32,7.93,5.51,5.3,22.41,11.84,34.48h0l3.84,6.68A16.87,16.87,0,0,0,1901.66,2130.89Z" transform="translate(-1871.42 -2043.21)"/><path class="cls-3" d="M1973,2124.74l3.84-6.68c1.88-6.84,4.35-18.47,3-23.82C1973.52,2098.47,1977.05,2114,1973,2124.74Z" transform="translate(-1871.42 -2043.21)"/><path class="cls-2" d="M1969.24,2130.89c12.26-8.84,20-31.24,19.5-47.32-7.93,5.51-5.3,22.41-11.84,34.48h0l-3.84,6.68A16.87,16.87,0,0,1,1969.24,2130.89Z" transform="translate(-1871.42 -2043.21)"/><text class="cls-10" transform="translate(260.29 121.81) scale(0.79 1)">CHECKER</text><text class="cls-11" transform="translate(140.69 79.66) scale(0.72 1)">SHINRAI</text></svg>