<svg id="Layer_1" data-name="Layer 1" xmlns="http://www.w3.org/2000/svg" viewBox="0 0 868.22 263.47"><defs><style>.cls-1{fill:#689f38;}.cls-1,.cls-2,.cls-3,.cls-4,.cls-5,.cls-6,.cls-8,.cls-9{fill-rule:evenodd;}.cls-2{fill:#79b22f;}.cls-3{fill:#90d331;}.cls-4{fill:#42a5f5;}.cls-5{fill:#82b1ff;}.cls-6{fill:#98e03b;}.cls-10,.cls-11,.cls-7,.cls-8{fill:#2494d1;}.cls-9{fill:#80b228;}.cls-10{font-size:85.34px;}.cls-10,.cls-11{font-family:Montserrat-Bold, Montserrat;font-weight:700;}.cls-11{font-size:183.03px;}</style></defs><title>256px logo</title><path class="cls-1" d="M1836.92,2153c19.56-19.5,5.84-63,21.2-73.3,2.78,10.71-2.15,34-5.92,47.66,13.12-24.12,7.85-58,23.72-69C1876.9,2090.53,1861.46,2135.32,1836.92,2153Zm40.63-66.77c-4.52,22.64-14.72,45.13-28.41,60.12-24.78,27.14-53.11,19.62-22.75-19.21,10.21-12.32,22.95-27.21,16.2-46.39-21.12,42-68.62,35.8-68.62,158.07,77.62-42.37,116.67-109.82,123.43-194.9C1885.44,2049.75,1881.4,2067,1877.55,2086.23Z" transform="translate(-1641.4 -1978.38)"/><path class="cls-2" d="M1842.59,2080.75c-21.12,42-68.62,35.8-68.62,158.07,27.45-15,50.07-33.11,68.15-54-25.17,24.83-56.08-10.68-15.73-57.65C1836.6,2114.82,1849.34,2099.93,1842.59,2080.75Z" transform="translate(-1641.4 -1978.38)"/><path class="cls-3" d="M1842.61,2081.33c-9.2,15-22.35,25-34.13,37.73-30.92,33.35-35.49,78.42-35.86,121.72a277.41,277.41,0,0,0,32.91-22c-20.61-9.88-14.43-51.86-7.71-69.4C1810.1,2117.33,1840.25,2104.86,1842.61,2081.33Z" transform="translate(-1641.4 -1978.38)"/><path class="cls-1" d="M1662.87,2058.34c15.87,11,10.6,44.89,23.72,69-3.77-13.69-8.7-36.95-5.92-47.66,15.37,10.29,1.64,53.8,21.21,73.3C1677.34,2135.31,1661.9,2090.52,1662.87,2058.34Zm-21.47-14.43c6.75,85.08,45.8,152.53,123.43,194.9,0-122.27-47.51-116.1-68.63-158.07-6.74,19.18,6,34.07,16.2,46.39,30.36,38.83,2,46.35-22.75,19.21-13.68-15-23.88-37.48-28.41-60.12C1657.39,2067,1653.36,2049.74,1641.4,2043.91Z" transform="translate(-1641.4 -1978.38)"/><path class="cls-2" d="M1696.2,2080.74c21.12,42,68.63,35.8,68.63,158.07-27.45-15-50.08-33.11-68.16-54,25.18,24.83,56.09-10.67,15.73-57.65C1702.19,2114.81,1689.46,2099.92,1696.2,2080.74Z" transform="translate(-1641.4 -1978.38)"/><path class="cls-3" d="M1696.18,2080.92c9.16,15,22.25,25,34,37.73,30.77,33.35,35.32,78.42,35.68,121.72a276.32,276.32,0,0,1-32.75-22c20.51-9.88,14.36-51.86,7.68-69.4C1728.53,2116.92,1698.54,2104.45,1696.18,2080.92Z" transform="translate(-1641.4 -1978.38)"/><path class="cls-4" d="M1811.79,2065.82a48.89,48.89,0,0,1,7.63,18.53c-2.58,2.28-5.2,4.51-7.81,6.74-1.14-22.05-20-39.6-43.06-39.6s-41.92,17.55-43.07,39.6c-2.61-2.23-5.22-4.46-7.8-6.74a48.72,48.72,0,0,1,7.62-18.53,38,38,0,0,0-31.88,1.83c19.37,30.33,65.23,49,75.13,99.3,9.89-50.33,55.76-69,75.12-99.3A38,38,0,0,0,1811.79,2065.82Z" transform="translate(-1641.4 -1978.38)"/><path class="cls-5" d="M1768.55,2144.15V2167c9.89-50.33,55.76-69,75.12-99.3C1821.63,2093.94,1782,2112,1768.55,2144.15Z" transform="translate(-1641.4 -1978.38)"/><path class="cls-5" d="M1693.42,2067.65c19.37,30.33,65.23,49,75.13,99.3v-22.8C1755.14,2112,1715.46,2093.94,1693.42,2067.65Z" transform="translate(-1641.4 -1978.38)"/><path class="cls-1" d="M1805,2006.71a293.21,293.21,0,0,1,73.85,21.12q-.42,14.16-2.15,27.93c2.51-7.22,8.86-14.14,14.31-17.71.37-6,.51-12,.66-18-30.73-13.36-60.14-22.68-92.14-26.38A35.28,35.28,0,0,1,1805,2006.71Z" transform="translate(-1641.4 -1978.38)"/><path class="cls-6" d="M1805,2006.7a292,292,0,0,1,73.86,21.13q-.42,14.18-2.15,27.94a33.37,33.37,0,0,1,6-10.2q.95-10.29,1.25-20.88c-26.4-11.34-52.73-19.41-80.42-23.14A34,34,0,0,1,1805,2006.7Z" transform="translate(-1641.4 -1978.38)"/><path class="cls-1" d="M1732.06,2006.7a293.1,293.1,0,0,0-73.85,21.12q.42,14.16,2.15,27.93c-2.52-7.22-8.86-14.14-14.31-17.71-.38-6-.51-12-.66-18,30.73-13.36,60.14-22.68,92.14-26.38A35.18,35.18,0,0,0,1732.06,2006.7Z" transform="translate(-1641.4 -1978.38)"/><path class="cls-6" d="M1732.07,2006.69a291.83,291.83,0,0,0-73.86,21.13q.42,14.17,2.15,27.94a33.78,33.78,0,0,0-6-10.2q-.94-10.29-1.25-20.88c26.4-11.34,52.73-19.41,80.42-23.14A34,34,0,0,0,1732.07,2006.69Z" transform="translate(-1641.4 -1978.38)"/><ellipse class="cls-7" cx="182.41" cy="58.2" rx="20.71" ry="20.04"/><ellipse class="cls-7" cx="71.9" cy="58.2" rx="20.71" ry="20.04"/><path class="cls-8" d="M1768.55,1984.78c-16.33,0-29.56,12.81-29.56,28.61s13.23,28.6,29.56,28.6,29.56-12.8,29.56-28.6S1784.87,1984.78,1768.55,1984.78Z" transform="translate(-1641.4 -1978.38)"/><path class="cls-8" d="M1768.42,2056.38c-22.84,0-37.08,16.77-38.18,37.86,14.53,11.62,29,23.53,38.18,38.85,9.19-15.32,23.64-27.23,38.17-38.84C1805.5,2073.15,1791.25,2056.38,1768.42,2056.38Z" transform="translate(-1641.4 -1978.38)"/><path class="cls-9" d="M1843.29,2146" transform="translate(-1641.4 -1978.38)"/><path class="cls-9" d="M1850.09,2127.93" transform="translate(-1641.4 -1978.38)"/><path class="cls-4" d="M1768.55,1988.22c-11.65,0-21.09,7.2-21.09,16.08s9.44-1.37,21.09-1.37,21.08,10.25,21.08,1.37S1780.19,1988.22,1768.55,1988.22Z" transform="translate(-1641.4 -1978.38)"/><path class="cls-4" d="M1713,2019.32c-8.16,0-14.77,5-14.77,11.27s6.61-1,14.77-1,14.77,7.18,14.77,1S1721.16,2019.32,1713,2019.32Z" transform="translate(-1641.4 -1978.38)"/><path class="cls-4" d="M1823.59,2019.32c-8.16,0-14.78,5-14.78,11.27s6.62-1,14.78-1,14.77,7.18,14.77,1S1831.75,2019.32,1823.59,2019.32Z" transform="translate(-1641.4 -1978.38)"/><path class="cls-8" d="M1725.3,2065.83a49,49,0,0,0-7.63,18.51l1.14,1-25.24-17.46-.16-.23A38,38,0,0,1,1725.3,2065.83Z" transform="translate(-1641.4 -1978.38)"/><path class="cls-8" d="M1843.66,2067.65s0,0,0,0l-24.7,17.09.49-.44a49,49,0,0,0-7.62-18.51A37.92,37.92,0,0,1,1843.66,2067.65Z" transform="translate(-1641.4 -1978.38)"/><path class="cls-3" d="M1694.26,2140.69l-7.67-13.35c-3.76-13.69-8.7-37-5.92-47.65C1693.31,2088.15,1686.25,2119.12,1694.26,2140.69Z" transform="translate(-1641.4 -1978.38)"/><path class="cls-2" d="M1701.87,2153c-24.53-17.68-40-62.47-39-94.64,15.85,11,10.6,44.83,23.68,69l0,0,7.67,13.35A33.59,33.59,0,0,0,1701.87,2153Z" transform="translate(-1641.4 -1978.38)"/><path class="cls-3" d="M1844.63,2140.69l7.68-13.35c3.75-13.69,8.7-37,5.91-47.65C1845.58,2088.15,1852.65,2119.12,1844.63,2140.69Z" transform="translate(-1641.4 -1978.38)"/><path class="cls-2" d="M1837,2153c24.53-17.68,40-62.47,39-94.64-15.85,11-10.6,44.83-23.68,69l0,0-7.68,13.35A33.59,33.59,0,0,1,1837,2153Z" transform="translate(-1641.4 -1978.38)"/><text class="cls-10" transform="translate(519.83 240.77) scale(0.79 1)">CHECKER</text><text class="cls-11" transform="translate(288.22 155.57) scale(0.72 1)">SHINRAI</text></svg>