<svg id="Layer_1" data-name="Layer 1" xmlns="http://www.w3.org/2000/svg" viewBox="0 0 1713.93 518.61"><defs><style>.cls-1{fill:#689f38;}.cls-1,.cls-2,.cls-3,.cls-4,.cls-5,.cls-6,.cls-8,.cls-9{fill-rule:evenodd;}.cls-2{fill:#79b22f;}.cls-3{fill:#90d331;}.cls-4{fill:#42a5f5;}.cls-5{fill:#82b1ff;}.cls-6{fill:#98e03b;}.cls-10,.cls-11,.cls-7,.cls-8{fill:#2494d1;}.cls-9{fill:#80b228;}.cls-10{font-size:163.72px;}.cls-10,.cls-11{font-family:Montserrat-Bold, Montserrat;font-weight:700;}.cls-11{font-size:357.22px;}</style></defs><title>512px logo</title><path class="cls-1" d="M1574.74,2194.21c39.13-39,11.68-126,42.41-146.59,5.56,21.41-4.3,67.94-11.84,95.32,26.23-48.24,15.7-115.94,47.44-138C1654.7,2069.27,1623.81,2158.86,1574.74,2194.21ZM1656,2060.67c-9,45.29-29.45,90.26-56.83,120.24-49.56,54.29-106.21,39.24-45.5-38.41,20.43-24.65,45.89-54.42,32.4-92.79-42.24,83.95-137.25,71.6-137.25,316.15,155.26-84.75,233.36-219.65,246.87-389.8C1671.78,1987.71,1663.71,2022.14,1656,2060.67Z" transform="translate(-1183.7 -1851.18)"/><path class="cls-2" d="M1586.08,2049.71c-42.24,83.95-137.25,71.6-137.25,316.15,54.91-30,100.16-66.22,136.32-108.07-50.35,49.67-112.18-21.34-31.47-115.29C1574.11,2117.85,1599.57,2088.08,1586.08,2049.71Z" transform="translate(-1183.7 -1851.18)"/><path class="cls-3" d="M1586.13,2050.88c-18.41,30-44.71,50-68.27,75.46-61.83,66.7-71,156.84-71.71,243.44a557.2,557.2,0,0,0,65.82-43.91c-41.23-19.77-28.87-103.73-15.44-138.81C1521.11,2122.87,1581.39,2098,1586.13,2050.88Z" transform="translate(-1183.7 -1851.18)"/><path class="cls-1" d="M1226.64,2004.9c31.75,22.08,21.21,89.78,47.45,138-7.54-27.38-17.41-73.91-11.85-95.32,30.74,20.57,3.29,107.6,42.42,146.59C1255.58,2158.84,1224.7,2069.25,1226.64,2004.9Zm-42.94-28.85c13.51,170.14,91.61,305,246.86,389.79,0-244.55-95-232.2-137.25-316.15-13.49,38.37,12,68.14,32.4,92.79,60.72,77.65,4.06,92.7-45.5,38.41-27.38-30-47.77-74.95-56.83-120.24C1215.69,2022.12,1207.62,1987.69,1183.7,1976.05Z" transform="translate(-1183.7 -1851.18)"/><path class="cls-2" d="M1293.31,2049.69c42.24,83.95,137.25,71.6,137.25,316.15-54.9-30-100.16-66.22-136.31-108.07,50.35,49.67,112.17-21.34,31.46-115.29C1305.29,2117.83,1279.82,2088.06,1293.31,2049.69Z" transform="translate(-1183.7 -1851.18)"/><path class="cls-3" d="M1293.27,2050.05c18.32,30,44.49,50,67.94,75.47,61.52,66.7,70.63,156.83,71.35,243.44a553.86,553.86,0,0,1-65.5-43.92c41-19.77,28.73-103.72,15.36-138.8C1358,2122.05,1298,2097.12,1293.27,2050.05Z" transform="translate(-1183.7 -1851.18)"/><path class="cls-4" d="M1524.49,2019.86a97.66,97.66,0,0,1,15.25,37c-5.16,4.56-10.39,9-15.62,13.49-2.28-44.11-40-79.2-86.12-79.2s-83.84,35.09-86.13,79.2c-5.23-4.46-10.45-8.93-15.62-13.49a97.68,97.68,0,0,1,15.26-37,76,76,0,0,0-63.76,3.65c38.73,60.67,130.45,98,150.25,198.6,19.79-100.65,111.52-137.93,150.25-198.6A76,76,0,0,0,1524.49,2019.86Z" transform="translate(-1183.7 -1851.18)"/><path class="cls-5" d="M1438,2176.52v45.59c19.79-100.65,111.52-137.93,150.25-198.6C1544.17,2076.09,1464.81,2112.27,1438,2176.52Z" transform="translate(-1183.7 -1851.18)"/><path class="cls-5" d="M1287.75,2023.51c38.73,60.67,130.45,98,150.25,198.6v-45.59C1411.19,2112.27,1331.83,2076.09,1287.75,2023.51Z" transform="translate(-1183.7 -1851.18)"/><path class="cls-1" d="M1511,1901.64c50.84,7.29,100.27,21.9,147.7,42.23q-.86,28.34-4.3,55.86c5-14.43,17.71-28.27,28.62-35.41.75-12,1-24,1.32-36.09-61.46-26.71-120.29-45.35-184.29-52.75A70.48,70.48,0,0,1,1511,1901.64Z" transform="translate(-1183.7 -1851.18)"/><path class="cls-6" d="M1511,1901.61c50.86,7.28,100.29,21.89,147.72,42.26q-.86,28.35-4.3,55.88a67,67,0,0,1,12.08-20.4q1.88-20.56,2.5-41.75c-52.8-22.68-105.46-38.82-160.84-46.29A69.94,69.94,0,0,1,1511,1901.61Z" transform="translate(-1183.7 -1851.18)"/><path class="cls-1" d="M1365,1901.62c-50.84,7.29-100.28,21.9-147.7,42.23q.84,28.34,4.3,55.86c-5-14.43-17.72-28.27-28.63-35.41-.74-12-1-24-1.31-36.09,61.46-26.71,120.28-45.35,184.28-52.74A70.18,70.18,0,0,0,1365,1901.62Z" transform="translate(-1183.7 -1851.18)"/><path class="cls-6" d="M1365,1901.59c-50.85,7.28-100.29,21.89-147.71,42.26q.84,28.35,4.3,55.88a67.15,67.15,0,0,0-12.08-20.4q-1.89-20.57-2.51-41.75c52.81-22.68,105.47-38.82,160.85-46.29A70,70,0,0,0,1365,1901.59Z" transform="translate(-1183.7 -1851.18)"/><ellipse class="cls-7" cx="364.81" cy="110.2" rx="41.43" ry="40.09"/><ellipse class="cls-7" cx="143.79" cy="110.2" rx="41.43" ry="40.09"/><path class="cls-8" d="M1438,1857.78c-32.65,0-59.12,25.62-59.12,57.21s26.47,57.22,59.12,57.22,59.12-25.62,59.12-57.22S1470.65,1857.78,1438,1857.78Z" transform="translate(-1183.7 -1851.18)"/><path class="cls-8" d="M1437.73,2001c-45.66,0-74.16,33.55-76.34,75.73,29.06,23.23,57.95,47.06,76.35,77.7,18.39-30.64,47.28-54.47,76.34-77.69C1511.9,2034.52,1483.4,2001,1437.73,2001Z" transform="translate(-1183.7 -1851.18)"/><path class="cls-9" d="M1587.48,2180.25" transform="translate(-1183.7 -1851.18)"/><path class="cls-9" d="M1696,2048.74" transform="translate(-1183.7 -1851.18)"/><path class="cls-9" d="M1601.07,2144.08" transform="translate(-1183.7 -1851.18)"/><path class="cls-4" d="M1438,1864.65c-23.29,0-42.17,14.4-42.17,32.16s18.88-2.74,42.17-2.74,42.17,20.51,42.17,2.74S1461.29,1864.65,1438,1864.65Z" transform="translate(-1183.7 -1851.18)"/><path class="cls-4" d="M1326.9,1926.86c-16.32,0-29.55,10.08-29.55,22.53s13.23-1.92,29.55-1.92,29.55,14.36,29.55,1.92S1343.22,1926.86,1326.9,1926.86Z" transform="translate(-1183.7 -1851.18)"/><path class="cls-4" d="M1548.07,1926.86c-16.32,0-29.54,10.08-29.54,22.53s13.22-1.92,29.54-1.92,29.55,14.36,29.55,1.92S1564.39,1926.86,1548.07,1926.86Z" transform="translate(-1183.7 -1851.18)"/><path class="cls-8" d="M1351.5,2019.87a98,98,0,0,0-15.25,37l2.27,2L1288,2024c-.11-.16-.21-.29-.31-.46A76,76,0,0,1,1351.5,2019.87Z" transform="translate(-1183.7 -1851.18)"/><path class="cls-8" d="M1588.23,2023.52s0,0-.07.07l-49.39,34.19,1-.89a98,98,0,0,0-15.25-37A75.86,75.86,0,0,1,1588.23,2023.52Z" transform="translate(-1183.7 -1851.18)"/><path class="cls-3" d="M1289.43,2169.6l-15.36-26.7c-7.5-27.39-17.39-73.91-11.82-95.31C1287.53,2064.52,1273.39,2126.46,1289.43,2169.6Z" transform="translate(-1183.7 -1851.18)"/><path class="cls-2" d="M1304.65,2194.19c-49.06-35.35-79.94-124.94-78-189.28,31.69,22.06,21.2,89.66,47.36,137.92l.06.07,15.36,26.7C1292.86,2178.87,1297.72,2187.28,1304.65,2194.19Z" transform="translate(-1183.7 -1851.18)"/><path class="cls-3" d="M1590.17,2169.6l15.35-26.7c7.51-27.39,17.4-73.91,11.83-95.31C1592.07,2064.52,1606.2,2126.46,1590.17,2169.6Z" transform="translate(-1183.7 -1851.18)"/><path class="cls-2" d="M1574.94,2194.19c49.06-35.35,79.94-124.94,78-189.28-31.69,22.06-21.2,89.66-47.36,137.92l-.06.07-15.36,26.7C1586.73,2178.87,1581.87,2187.28,1574.94,2194.19Z" transform="translate(-1183.7 -1851.18)"/><text class="cls-10" transform="translate(1043.03 471.85) scale(0.79 1)">CHECKER</text><text class="cls-11" transform="translate(581.93 303.63) scale(0.72 1)">SHINRAI</text></svg>